<?xml version="1.0" encoding="utf-8"?>
<!-- Generator: Adobe Illustrator 27.2.0, SVG Export Plug-In . SVG Version: 6.00 Build 0)  -->
<svg version="1.1" id="Capa_1" xmlns="http://www.w3.org/2000/svg" xmlns:xlink="http://www.w3.org/1999/xlink" x="0px" y="0px"
	 viewBox="0 0 1200 712.5" style="enable-background:new 0 0 1200 712.5;" xml:space="preserve">
<style type="text/css">
	.st0{clip-path:url(#SVGID_00000019643156993093329140000011390835697005104793_);fill:#5874A4;}
	.st1{clip-path:url(#SVGID_00000016049255661069795190000001764492471609513103_);}
	.st2{clip-path:url(#SVGID_00000042009361838257442200000009790401974754565004_);}
	.st3{clip-path:url(#SVGID_00000128454689865109812480000010131649921909371563_);}
	.st4{clip-path:url(#SVGID_00000076570904456283781980000003706494865573908916_);}
	.st5{clip-path:url(#SVGID_00000062150770686764860320000000347172206352103334_);fill:#5874A4;}
	.st6{clip-path:url(#SVGID_00000064354475229594929320000005052344869713825723_);fill:#5874A4;}
	.st7{clip-path:url(#SVGID_00000145772557976045480120000006201017870817845401_);fill:#7094CB;}
	.st8{clip-path:url(#SVGID_00000106865968081377516360000003395624968084327354_);fill:#A1BFEB;}
	.st9{clip-path:url(#SVGID_00000044163900719276480110000010637683048739155642_);fill:#7094CB;}
	.st10{clip-path:url(#SVGID_00000034065626491489396020000002704627926840224413_);fill:#A1BFEB;}
</style>
<g>
	<defs>
		<rect id="SVGID_1_" width="1200" height="605.62"/>
	</defs>
	<clipPath id="SVGID_00000176023697144042455460000002002962746309888678_">
		<use xlink:href="#SVGID_1_"  style="overflow:visible;"/>
	</clipPath>
	
		<rect style="clip-path:url(#SVGID_00000176023697144042455460000002002962746309888678_);fill:#5874A4;" width="1200" height="605.62"/>
</g>
<g>
	<defs>
		<rect id="SVGID_00000106118226657662107610000005319701946070570624_" width="1200" height="720"/>
	</defs>
	<clipPath id="SVGID_00000052078168219592202870000011596725281831188128_">
		<use xlink:href="#SVGID_00000106118226657662107610000005319701946070570624_"  style="overflow:visible;"/>
	</clipPath>
	<g style="clip-path:url(#SVGID_00000052078168219592202870000011596725281831188128_);">
		<defs>
			<rect id="SVGID_00000005243079917075245310000007147019590443912854_" width="1200" height="712.5"/>
		</defs>
		<clipPath id="SVGID_00000148629083588419258850000007837535768556338610_">
			<use xlink:href="#SVGID_00000005243079917075245310000007147019590443912854_"  style="overflow:visible;"/>
		</clipPath>
		<g style="clip-path:url(#SVGID_00000148629083588419258850000007837535768556338610_);">
			<defs>
				<rect id="SVGID_00000104685873397546355440000009672803514358705325_" width="1200" height="712.5"/>
			</defs>
			<clipPath id="SVGID_00000090260516808562908250000000404841832319749272_">
				<use xlink:href="#SVGID_00000104685873397546355440000009672803514358705325_"  style="overflow:visible;"/>
			</clipPath>
			<g style="clip-path:url(#SVGID_00000090260516808562908250000000404841832319749272_);">
				<defs>
					<rect id="SVGID_00000034792336470473098270000013346742729565962428_" x="986.25" y="498.75" width="213.75" height="213.75"/>
				</defs>
				<clipPath id="SVGID_00000044857772219741755170000013898425219998468738_">
					<use xlink:href="#SVGID_00000034792336470473098270000013346742729565962428_"  style="overflow:visible;"/>
				</clipPath>
				<g style="clip-path:url(#SVGID_00000044857772219741755170000013898425219998468738_);">
					<defs>
						<circle id="SVGID_00000057142542782781346740000011784821961496614560_" cx="1093.12" cy="605.62" r="106.88"/>
					</defs>
					<clipPath id="SVGID_00000007395550460663650470000013348730872337449149_">
						<use xlink:href="#SVGID_00000057142542782781346740000011784821961496614560_"  style="overflow:visible;"/>
					</clipPath>
					
						<rect x="986.25" y="498.75" style="clip-path:url(#SVGID_00000007395550460663650470000013348730872337449149_);fill:#5874A4;" width="213.75" height="213.75"/>
				</g>
			</g>
		</g>
	</g>
</g>
<g>
	<defs>
		<rect id="SVGID_00000144321937501470307920000006226350668766665379_" y="0" width="1093.12" height="712.5"/>
	</defs>
	<clipPath id="SVGID_00000023256682493257682280000014766709837439672708_">
		<use xlink:href="#SVGID_00000144321937501470307920000006226350668766665379_"  style="overflow:visible;"/>
	</clipPath>
	
		<rect style="clip-path:url(#SVGID_00000023256682493257682280000014766709837439672708_);fill:#5874A4;" width="1093.12" height="712.5"/>
</g>
<g>
	<defs>
		<rect id="SVGID_00000121979073959892160550000000922797121111356857_" x="114.36" y="211.47" width="250.5" height="250.5"/>
	</defs>
	<clipPath id="SVGID_00000142176986555010015530000008510113484699770516_">
		<use xlink:href="#SVGID_00000121979073959892160550000000922797121111356857_"  style="overflow:visible;"/>
	</clipPath>
	<path style="clip-path:url(#SVGID_00000142176986555010015530000008510113484699770516_);fill:#7094CB;" d="M239.75,213.32
		c-68.13,0-123.54,55.41-123.54,123.54s55.41,123.54,123.54,123.54S363.3,405,363.3,336.87S307.89,213.32,239.75,213.32z
		 M239.75,462.26c-69.12,0-125.4-56.27-125.4-125.4s56.27-125.4,125.4-125.4s125.4,56.27,125.4,125.4S308.88,462.26,239.75,462.26z"
		/>
</g>
<g>
	<defs>
		<rect id="SVGID_00000043459477642544752690000015657652234201501569_" x="165.66" y="261.63" width="150" height="150"/>
	</defs>
	<clipPath id="SVGID_00000178170085490024949250000017800417893369487800_">
		<use xlink:href="#SVGID_00000043459477642544752690000015657652234201501569_"  style="overflow:visible;"/>
	</clipPath>
	<path style="clip-path:url(#SVGID_00000178170085490024949250000017800417893369487800_);fill:#A1BFEB;" d="M240.61,262.74
		c-40.73,0-73.85,33.12-73.85,73.85s33.12,73.85,73.85,73.85s73.85-33.12,73.85-73.85S281.34,262.74,240.61,262.74z M240.61,411.54
		c-41.32,0-74.95-33.64-74.95-74.95s33.64-74.95,74.95-74.95s74.95,33.64,74.95,74.95S281.93,411.54,240.61,411.54z"/>
</g>
<g>
	<defs>
		<rect id="SVGID_00000159438328421527036750000007092354172191235746_" x="751.62" y="10.83" width="250.5" height="250.5"/>
	</defs>
	<clipPath id="SVGID_00000106826682129694799790000004300431319596297103_">
		<use xlink:href="#SVGID_00000159438328421527036750000007092354172191235746_"  style="overflow:visible;"/>
	</clipPath>
	<path style="clip-path:url(#SVGID_00000106826682129694799790000004300431319596297103_);fill:#7094CB;" d="M877.02,12.68
		c-68.13,0-123.54,55.41-123.54,123.54s55.41,123.54,123.54,123.54s123.54-55.41,123.54-123.54S945.15,12.68,877.02,12.68z
		 M877.02,261.62c-69.12,0-125.4-56.27-125.4-125.4s56.27-125.4,125.4-125.4s125.4,56.27,125.4,125.4S946.14,261.62,877.02,261.62z"
		/>
</g>
<g>
	<defs>
		<rect id="SVGID_00000069361868642175940490000012087544880052136579_" x="802.92" y="60.99" width="150" height="150"/>
	</defs>
	<clipPath id="SVGID_00000137815764532978452640000003760999581625258390_">
		<use xlink:href="#SVGID_00000069361868642175940490000012087544880052136579_"  style="overflow:visible;"/>
	</clipPath>
	<path style="clip-path:url(#SVGID_00000137815764532978452640000003760999581625258390_);fill:#A1BFEB;" d="M877.88,62.1
		c-40.73,0-73.85,33.12-73.85,73.85c0,40.73,33.12,73.85,73.85,73.85c40.73,0,73.85-33.12,73.85-73.85
		C951.72,95.22,918.6,62.1,877.88,62.1z M877.88,210.9c-41.32,0-74.95-33.64-74.95-74.95s33.64-74.95,74.95-74.95
		s74.95,33.64,74.95,74.95S919.19,210.9,877.88,210.9z"/>
</g>
</svg>
