<?xml version="1.0" encoding="UTF-8"?>
<svg id="Capa_1" data-name="Capa 1" xmlns="http://www.w3.org/2000/svg" xmlns:xlink="http://www.w3.org/1999/xlink" viewBox="0 0 1200 720">
  <defs>
    <style>
      .cls-1 {
        clip-path: url(#clippath-2);
      }

      .cls-2 {
        fill: #81a8e4;
      }

      .cls-3 {
        fill: #6a96d8;
      }

      .cls-4 {
        clip-path: url(#clippath-6);
      }

      .cls-5 {
        clip-path: url(#clippath-7);
      }

      .cls-6 {
        clip-path: url(#clippath-1);
      }

      .cls-7 {
        clip-path: url(#clippath-4);
      }

      .cls-8 {
        fill: #b7d4ff;
      }

      .cls-9 {
        clip-path: url(#clippath-9);
      }

      .cls-10 {
        clip-path: url(#clippath);
      }

      .cls-11 {
        fill: none;
      }

      .cls-12 {
        clip-path: url(#clippath-3);
      }

      .cls-13 {
        clip-path: url(#clippath-8);
      }

      .cls-14 {
        clip-path: url(#clippath-5);
      }

      .cls-15 {
        clip-path: url(#clippath-10);
      }
    </style>
    <clipPath id="clippath">
      <rect class="cls-11" width="1200" height="605.62"/>
    </clipPath>
    <clipPath id="clippath-1">
      <rect class="cls-11" width="1200" height="720"/>
    </clipPath>
    <clipPath id="clippath-2">
      <rect class="cls-11" width="1200" height="712.5"/>
    </clipPath>
    <clipPath id="clippath-3">
      <rect class="cls-11" width="1200" height="712.5"/>
    </clipPath>
    <clipPath id="clippath-4">
      <rect class="cls-11" x="986.25" y="498.75" width="213.75" height="213.75"/>
    </clipPath>
    <clipPath id="clippath-5">
      <circle class="cls-11" cx="1093.12" cy="605.62" r="106.87"/>
    </clipPath>
    <clipPath id="clippath-6">
      <rect class="cls-11" y="0" width="1093.12" height="712.5"/>
    </clipPath>
    <clipPath id="clippath-7">
      <rect class="cls-11" x="114.36" y="211.47" width="250.5" height="250.5"/>
    </clipPath>
    <clipPath id="clippath-8">
      <rect class="cls-11" x="165.66" y="261.63" width="150" height="150"/>
    </clipPath>
    <clipPath id="clippath-9">
      <rect class="cls-11" x="751.62" y="10.83" width="250.5" height="250.5"/>
    </clipPath>
    <clipPath id="clippath-10">
      <rect class="cls-11" x="802.92" y="60.99" width="150" height="150"/>
    </clipPath>
  </defs>
  <g class="cls-10">
    <rect class="cls-3" width="1200" height="605.62"/>
  </g>
  <g class="cls-6">
    <g class="cls-1">
      <g class="cls-12">
        <g class="cls-7">
          <g class="cls-14">
            <rect class="cls-3" x="986.25" y="498.75" width="213.75" height="213.75"/>
          </g>
        </g>
      </g>
    </g>
  </g>
  <g class="cls-4">
    <rect class="cls-3" width="1093.12" height="712.5"/>
  </g>
  <g class="cls-5">
    <path class="cls-2" d="m239.75,213.32c-68.13,0-123.54,55.41-123.54,123.54s55.41,123.54,123.54,123.54,123.54-55.41,123.54-123.54-55.41-123.54-123.54-123.54Zm0,248.94c-69.12,0-125.4-56.27-125.4-125.4s56.27-125.4,125.4-125.4,125.4,56.27,125.4,125.4-56.27,125.4-125.4,125.4Z"/>
  </g>
  <g class="cls-13">
    <path class="cls-8" d="m240.61,262.74c-40.73,0-73.85,33.12-73.85,73.85s33.12,73.85,73.85,73.85,73.85-33.12,73.85-73.85-33.12-73.85-73.85-73.85Zm0,148.8c-41.32,0-74.95-33.64-74.95-74.95s33.64-74.95,74.95-74.95,74.95,33.64,74.95,74.95-33.64,74.95-74.95,74.95Z"/>
  </g>
  <g class="cls-9">
    <path class="cls-2" d="m877.02,12.68c-68.13,0-123.54,55.41-123.54,123.54s55.41,123.54,123.54,123.54,123.54-55.41,123.54-123.54-55.41-123.54-123.54-123.54Zm0,248.94c-69.12,0-125.4-56.27-125.4-125.4s56.27-125.4,125.4-125.4,125.4,56.27,125.4,125.4-56.27,125.4-125.4,125.4Z"/>
  </g>
  <g class="cls-15">
    <path class="cls-8" d="m877.88,62.1c-40.73,0-73.85,33.12-73.85,73.85s33.12,73.85,73.85,73.85,73.85-33.12,73.85-73.85-33.12-73.85-73.85-73.85Zm0,148.8c-41.32,0-74.95-33.64-74.95-74.95s33.64-74.95,74.95-74.95,74.95,33.64,74.95,74.95-33.64,74.95-74.95,74.95Z"/>
  </g>
</svg>